STARTFONT 2.1
COMMENT
COMMENT Converted from OpenType font "7 Segment.ttf" by "otf2bdf 3.0".
COMMENT
FONT -FreeType-7 Segment-Medium-R-Normal--60-600-72-72-P-97-ISO10646-1
SIZE 60 72 72
FONTBOUNDINGBOX 29 44 0 0
STARTPROPERTIES 19
FOUNDRY "FreeType"
FAMILY_NAME "7 Segment"
WEIGHT_NAME "Medium"
SLANT "R"
SETWIDTH_NAME "Normal"
ADD_STYLE_NAME ""
PIXEL_SIZE 60
POINT_SIZE 600
RESOLUTION_X 72
RESOLUTION_Y 72
SPACING "P"
AVERAGE_WIDTH 97
CHARSET_REGISTRY "ISO10646"
CHARSET_ENCODING "1"
FONT_ASCENT 54
FONT_DESCENT 12
COPYRIGHT "© Twyman Enterprises 2005 - http://www.Twyman.org.uk/Fonts"
_OTF_FONTFILE "7 Segment.ttf"
_OTF_PSNAME "7 Segment"
ENDPROPERTIES
CHARS 223
STARTCHAR F020
ENCODING 61472
SWIDTH 500 0
DWIDTH 30 0
BBX 0 0 0 0
BITMAP
ENDCHAR
STARTCHAR F021
ENCODING 61473
SWIDTH 533 0
DWIDTH 32 0
BBX 8 39 1 2
BITMAP
03
07
0F
0F
1F
1F
1F
1E
1E
1E
1E
1E
1E
1E
1E
1E
1E
0C
04
04
1C
3C
3C
3C
3C
7C
7C
7C
78
78
78
78
78
78
78
F8
78
70
30
ENDCHAR
STARTCHAR F022
ENCODING 61474
SWIDTH 533 0
DWIDTH 32 0
BBX 25 19 2 22
BITMAP
00000180
70000380
78000780
78000780
78000F80
78000F80
78000F80
F8000F00
F0000F00
F0000F00
F0000F00
F0000F00
F0000F00
F0000F00
F0000F00
E0000F00
C0000F00
00000600
00000200
ENDCHAR
STARTCHAR F023
ENCODING 61475
SWIDTH 300 0
DWIDTH 18 0
BBX 0 0 0 0
BITMAP
ENDCHAR
STARTCHAR F024
ENCODING 61476
SWIDTH 533 0
DWIDTH 32 0
BBX 24 43 2 0
BITMAP
0FFFFE
0FFFFE
07FFFC
33FFF8
380000
3C0000
7C0000
780000
780000
780000
780000
780000
780000
780000
780000
F80000
F00000
F00000
EFFFE0
1FFFF0
3FFFF8
3FFFF8
0FFFE7
00000F
00001F
00001F
00001F
00001E
00001E
00001E
00001E
00001E
00001E
00001E
00003E
00003E
00003C
00003C
00003C
7FFFDC
7FFFCC
FFFFE0
FFFFE0
ENDCHAR
STARTCHAR F025
ENCODING 61477
SWIDTH 300 0
DWIDTH 18 0
BBX 0 0 0 0
BITMAP
ENDCHAR
STARTCHAR F026
ENCODING 61478
SWIDTH 300 0
DWIDTH 18 0
BBX 0 0 0 0
BITMAP
ENDCHAR
STARTCHAR F027
ENCODING 61479
SWIDTH 533 0
DWIDTH 32 0
BBX 5 16 2 24
BITMAP
70
78
78
78
78
78
F8
F0
F0
F0
F0
F0
F0
F0
E0
C0
ENDCHAR
STARTCHAR F028
ENCODING 61480
SWIDTH 533 0
DWIDTH 32 0
BBX 24 43 2 0
BITMAP
07FFFF
07FFFF
03FFFE
19FFFC
1C0000
1E0000
1E0000
1E0000
3E0000
3E0000
3C0000
3C0000
3C0000
3C0000
3C0000
3C0000
3C0000
780000
700000
000000
000000
400000
700000
700000
780000
780000
780000
780000
F00000
F00000
F00000
F00000
F00000
F00000
F00000
F00000
F00000
E00000
C00000
9FFFE0
3FFFF0
7FFFF0
7FFFF0
ENDCHAR
STARTCHAR F029
ENCODING 61481
SWIDTH 533 0
DWIDTH 32 0
BBX 25 43 2 0
BITMAP
0FFFFE00
0FFFFE00
07FFFD80
03FFFB80
00000380
00000780
00000780
00000780
00000780
00000780
00000780
00000780
00000780
00000F80
00000F80
00000F80
00000F00
00000F00
00000F00
00000700
00000200
00000000
00000700
00000F00
00001F00
00001F00
00001F00
00001E00
00001E00
00001E00
00001E00
00001E00
00001E00
00001E00
00003E00
00003E00
00003E00
00003C00
00003C00
7FFFDC00
7FFFCC00
FFFFE000
FFFFE000
ENDCHAR
STARTCHAR F02A
ENCODING 61482
SWIDTH 300 0
DWIDTH 18 0
BBX 0 0 0 0
BITMAP
ENDCHAR
STARTCHAR F02B
ENCODING 61483
SWIDTH 533 0
DWIDTH 32 0
BBX 23 37 1 4
BITMAP
0E0000
0F0000
0F0000
0F0000
0F0000
1F0000
1F0000
1E0000
1E0000
1E0000
1E0000
1E0000
1E0000
1E0000
3C0000
3BFFFC
07FFFC
0FFFFE
37FFFE
3BFFF8
3C0000
3C0000
3C0000
3C0000
3C0000
780000
780000
780000
780000
780000
780000
780000
780000
780000
700000
E00000
400000
ENDCHAR
STARTCHAR F02C
ENCODING 61484
SWIDTH 533 0
DWIDTH 32 0
BBX 19 4 2 0
BITMAP
7FFFC0
7FFFC0
FFFFE0
FFFFE0
ENDCHAR
STARTCHAR F02D
ENCODING 61485
SWIDTH 533 0
DWIDTH 32 0
BBX 18 5 2 21
BITMAP
3FFF80
FFFFC0
FFFFC0
FFFFC0
3FFF80
ENDCHAR
STARTCHAR F02E
ENCODING 61486
SWIDTH 533 0
DWIDTH 32 0
BBX 19 4 2 0
BITMAP
7FFFC0
7FFFC0
FFFFE0
FFFFE0
ENDCHAR
STARTCHAR F02F
ENCODING 61487
SWIDTH 533 0
DWIDTH 32 0
BBX 28 38 1 4
BITMAP
00000030
00000070
000000F0
000001F0
000001F0
000001F0
000001E0
000001E0
000001E0
000001E0
000001E0
000001E0
000001E0
000001E0
000001E0
000003E0
03FFFDC0
07FFFDC0
0FFFFE40
37FFFE00
3BFFF800
3C000000
3C000000
3C000000
3C000000
3C000000
78000000
78000000
78000000
78000000
78000000
78000000
78000000
78000000
78000000
70000000
E0000000
40000000
ENDCHAR
STARTCHAR F030
ENCODING 61488
SWIDTH 533 0
DWIDTH 32 0
BBX 27 43 2 0
BITMAP
07FFFF00
07FFFF00
03FFFE60
19FFFCE0
1C0001E0
1E0003E0
1E0003E0
1E0003E0
3E0003C0
3E0003C0
3C0003C0
3C0003C0
3C0003C0
3C0003C0
3C0003C0
3C0003C0
3C0003C0
780007C0
70000380
00000380
00000080
40000000
70000380
70000780
78000780
78000780
78000F80
78000F80
F0000F80
F0000F80
F0000F00
F0000F00
F0000F00
F0000F00
F0000F00
F0000F00
F0001F00
E0001F00
C0001F00
9FFFEE00
3FFFF600
7FFFF000
7FFFF000
ENDCHAR
STARTCHAR F031
ENCODING 61489
SWIDTH 533 0
DWIDTH 32 0
BBX 7 39 22 2
BITMAP
06
0E
1E
1E
3E
3E
3E
3E
3C
3C
3C
3C
3C
3C
3C
3C
3C
18
08
08
38
78
78
78
78
78
F8
F8
F8
F0
F0
F0
F0
F0
F0
F0
F0
E0
60
ENDCHAR
STARTCHAR F032
ENCODING 61490
SWIDTH 533 0
DWIDTH 32 0
BBX 27 43 2 0
BITMAP
07FFFF00
07FFFF00
03FFFE60
01FFFCE0
000001E0
000003E0
000003E0
000003E0
000003C0
000003C0
000003C0
000003C0
000003C0
000003C0
000003C0
000003C0
000003C0
000007C0
07FFFB80
0FFFFB80
1FFFFC80
4FFFFC00
77FFF000
70000000
78000000
78000000
78000000
78000000
F0000000
F0000000
F0000000
F0000000
F0000000
F0000000
F0000000
F0000000
F0000000
E0000000
C0000000
9FFFE000
3FFFF000
7FFFF000
7FFFF000
ENDCHAR
STARTCHAR F033
ENCODING 61491
SWIDTH 533 0
DWIDTH 32 0
BBX 25 43 2 0
BITMAP
0FFFFE00
0FFFFE00
07FFFD80
03FFFB80
00000380
00000780
00000780
00000780
00000780
00000780
00000780
00000780
00000780
00000F80
00000F80
00000F80
00000F00
00000F00
0FFFEF00
1FFFF700
3FFFFA00
3FFFF800
0FFFE700
00000F00
00001F00
00001F00
00001F00
00001E00
00001E00
00001E00
00001E00
00001E00
00001E00
00001E00
00003E00
00003E00
00003C00
00003C00
00003C00
7FFFDC00
7FFFCC00
FFFFE000
FFFFE000
ENDCHAR
STARTCHAR F034
ENCODING 61492
SWIDTH 533 0
DWIDTH 32 0
BBX 25 39 2 2
BITMAP
00000180
70000380
78000780
78000780
78000F80
78000F80
78000F80
F8000F00
F0000F00
F0000F00
F0000F00
F0000F00
F0000F00
F0000F00
F0000F00
E0000F00
DFFFEF00
3FFFF600
7FFFF200
3FFFF200
1FFFCE00
00001E00
00001E00
00001E00
00001E00
00003E00
00003E00
00003E00
00003C00
00003C00
00003C00
00003C00
00003C00
00003C00
00003C00
00007C00
00003C00
00003800
00001800
ENDCHAR
STARTCHAR F035
ENCODING 61493
SWIDTH 533 0
DWIDTH 32 0
BBX 24 43 2 0
BITMAP
0FFFFE
0FFFFE
07FFFC
33FFF8
380000
3C0000
7C0000
780000
780000
780000
780000
780000
780000
780000
780000
F80000
F00000
F00000
EFFFE0
1FFFF0
3FFFF8
3FFFF8
0FFFE7
00000F
00001F
00001F
00001F
00001E
00001E
00001E
00001E
00001E
00001E
00001E
00003E
00003E
00003C
00003C
00003C
7FFFDC
7FFFCC
FFFFE0
FFFFE0
ENDCHAR
STARTCHAR F036
ENCODING 61494
SWIDTH 533 0
DWIDTH 32 0
BBX 25 43 2 0
BITMAP
07FFFF00
07FFFF00
03FFFE00
1DFFFC00
1E000000
1E000000
1E000000
1E000000
3E000000
3E000000
3C000000
3C000000
3C000000
3C000000
3C000000
3C000000
3C000000
78000000
77FFF800
0FFFF800
1FFFFC00
4FFFFC00
77FFF380
70000780
78000780
78000780
78000F80
78000F80
F0000F80
F0000F80
F0000F00
F0000F00
F0000F00
F0000F00
F0000F00
F0000F00
F0001F00
E0001F00
C0001E00
9FFFEE00
3FFFF600
7FFFF000
7FFFF000
ENDCHAR
STARTCHAR F037
ENCODING 61495
SWIDTH 533 0
DWIDTH 32 0
BBX 21 41 2 2
BITMAP
FFFFE0
FFFFE0
7FFFD8
3FFFB8
000038
000078
000078
000078
000078
000078
000078
000078
000078
0000F8
0000F8
0000F8
0000F0
0000F0
0000F0
000070
000020
000020
000070
0000F0
0001F0
0001F0
0001E0
0001E0
0001E0
0001E0
0001E0
0001E0
0001E0
0003E0
0003E0
0003E0
0003C0
0003C0
0003C0
0001C0
0000C0
ENDCHAR
STARTCHAR F038
ENCODING 61496
SWIDTH 533 0
DWIDTH 32 0
BBX 27 43 2 0
BITMAP
07FFFF00
07FFFF00
03FFFE60
1DFFFCE0
1E0001E0
1E0003E0
1E0003E0
1E0003E0
3E0003C0
3E0003C0
3C0003C0
3C0003C0
3C0003C0
3C0003C0
3C0003C0
3C0003C0
3C0003C0
780007C0
77FFFB80
0FFFFB80
1FFFFC80
4FFFFC00
77FFF380
70000780
78000780
78000780
78000F80
78000F80
F0000F80
F0000F80
F0000F00
F0000F00
F0000F00
F0000F00
F0000F00
F0000F00
F0001F00
E0001F00
C0001E00
9FFFEE00
3FFFF600
7FFFF000
7FFFF000
ENDCHAR
STARTCHAR F039
ENCODING 61497
SWIDTH 533 0
DWIDTH 32 0
BBX 25 43 2 0
BITMAP
0FFFFE00
0FFFFE00
07FFFD80
33FFFB80
38000380
3C000780
7C000780
78000780
78000780
78000780
78000780
78000780
78000780
78000F80
78000F80
F8000F80
F0000F00
F0000F00
EFFFEF00
1FFFF700
3FFFFA00
3FFFF800
0FFFE700
00000F00
00001F00
00001F00
00001F00
00001E00
00001E00
00001E00
00001E00
00001E00
00001E00
00001E00
00003E00
00003E00
00003C00
00003C00
00003C00
7FFFDC00
7FFFCC00
FFFFE000
FFFFE000
ENDCHAR
STARTCHAR F03A
ENCODING 61498
SWIDTH 533 0
DWIDTH 32 0
BBX 21 25 2 0
BITMAP
0FFFE0
1FFFF0
3FFFF8
3FFFF8
0FFFE0
000000
000000
000000
000000
000000
000000
000000
000000
000000
000000
000000
000000
000000
000000
000000
000000
7FFFC0
7FFFC0
FFFFE0
FFFFE0
ENDCHAR
STARTCHAR F03B
ENCODING 61499
SWIDTH 533 0
DWIDTH 32 0
BBX 21 25 2 0
BITMAP
0FFFE0
1FFFF0
3FFFF8
3FFFF8
0FFFE0
000000
000000
000000
000000
000000
000000
000000
000000
000000
000000
000000
000000
000000
000000
000000
000000
7FFFC0
7FFFC0
FFFFE0
FFFFE0
ENDCHAR
STARTCHAR F03C
ENCODING 61500
SWIDTH 533 0
DWIDTH 32 0
BBX 24 43 2 0
BITMAP
07FFFF
07FFFF
03FFFE
19FFFC
1C0000
1E0000
1E0000
1E0000
3E0000
3E0000
3C0000
3C0000
3C0000
3C0000
3C0000
3C0000
3C0000
780000
700000
000000
000000
400000
700000
700000
780000
780000
780000
780000
F00000
F00000
F00000
F00000
F00000
F00000
F00000
F00000
F00000
E00000
C00000
9FFFE0
3FFFF0
7FFFF0
7FFFF0
ENDCHAR
STARTCHAR F03D
ENCODING 61501
SWIDTH 533 0
DWIDTH 32 0
BBX 21 25 2 0
BITMAP
0FFFE0
1FFFF0
3FFFF8
3FFFF8
0FFFE0
000000
000000
000000
000000
000000
000000
000000
000000
000000
000000
000000
000000
000000
000000
000000
000000
7FFFC0
7FFFC0
FFFFE0
FFFFE0
ENDCHAR
STARTCHAR F03E
ENCODING 61502
SWIDTH 533 0
DWIDTH 32 0
BBX 25 43 2 0
BITMAP
0FFFFE00
0FFFFE00
07FFFD80
03FFFB80
00000380
00000780
00000780
00000780
00000780
00000780
00000780
00000780
00000780
00000F80
00000F80
00000F80
00000F00
00000F00
00000F00
00000700
00000200
00000000
00000700
00000F00
00001F00
00001F00
00001F00
00001E00
00001E00
00001E00
00001E00
00001E00
00001E00
00001E00
00003E00
00003E00
00003E00
00003C00
00003C00
7FFFDC00
7FFFCC00
FFFFE000
FFFFE000
ENDCHAR
STARTCHAR F03F
ENCODING 61503
SWIDTH 533 0
DWIDTH 32 0
BBX 28 40 1 4
BITMAP
03FFFF80
03FFFF80
01FFFF30
00FFFE70
000000F0
000001F0
000001F0
000001F0
000001E0
000001E0
000001E0
000001E0
000001E0
000001E0
000001E0
000001E0
000001E0
000003E0
03FFFDC0
07FFFDC0
0FFFFE40
37FFFE00
3BFFF800
3C000000
3C000000
3C000000
3C000000
3C000000
78000000
78000000
78000000
78000000
78000000
78000000
78000000
78000000
78000000
70000000
E0000000
40000000
ENDCHAR
STARTCHAR F040
ENCODING 61504
SWIDTH 300 0
DWIDTH 18 0
BBX 0 0 0 0
BITMAP
ENDCHAR
STARTCHAR F041
ENCODING 61505
SWIDTH 533 0
DWIDTH 32 0
BBX 28 41 1 2
BITMAP
03FFFF80
03FFFF80
01FFFF30
0EFFFE70
0F0000F0
0F0001F0
0F0001F0
0F0001F0
1F0001E0
1F0001E0
1E0001E0
1E0001E0
1E0001E0
1E0001E0
1E0001E0
1E0001E0
1E0001E0
3C0003E0
3BFFFDC0
07FFFDC0
0FFFFE40
37FFFE40
3BFFF9C0
3C0003C0
3C0003C0
3C0003C0
3C0007C0
3C0007C0
780007C0
78000780
78000780
78000780
78000780
78000780
78000780
78000780
78000F80
70000F80
E0000700
40000700
00000300
ENDCHAR
STARTCHAR F042
ENCODING 61506
SWIDTH 533 0
DWIDTH 32 0
BBX 25 40 2 0
BITMAP
1C000000
1E000000
1E000000
1E000000
1E000000
3E000000
3E000000
3C000000
3C000000
3C000000
3C000000
3C000000
3C000000
3C000000
78000000
77FFF800
0FFFF800
1FFFFC00
4FFFFC00
77FFF380
70000780
78000780
78000780
78000F80
78000F80
F0000F80
F0000F80
F0000F00
F0000F00
F0000F00
F0000F00
F0000F00
F0000F00
F0001F00
E0001F00
C0001E00
9FFFEE00
3FFFF600
7FFFF000
7FFFF000
ENDCHAR
STARTCHAR F043
ENCODING 61507
SWIDTH 533 0
DWIDTH 32 0
BBX 24 43 2 0
BITMAP
07FFFF
07FFFF
03FFFE
19FFFC
1C0000
1E0000
1E0000
1E0000
3E0000
3E0000
3C0000
3C0000
3C0000
3C0000
3C0000
3C0000
3C0000
780000
700000
000000
000000
400000
700000
700000
780000
780000
780000
780000
F00000
F00000
F00000
F00000
F00000
F00000
F00000
F00000
F00000
E00000
C00000
9FFFE0
3FFFF0
7FFFF0
7FFFF0
ENDCHAR
STARTCHAR F044
ENCODING 61508
SWIDTH 533 0
DWIDTH 32 0
BBX 27 41 2 0
BITMAP
00000060
000000E0
000001E0
000003E0
000003E0
000003E0
000003C0
000003C0
000003C0
000003C0
000003C0
000003C0
000003C0
000003C0
000003C0
000007C0
07FFFB80
0FFFFB80
1FFFFC80
4FFFFC00
77FFF380
70000780
78000780
78000780
78000F80
78000F80
F0000F80
F0000F80
F0000F00
F0000F00
F0000F00
F0000F00
F0000F00
F0000F00
F0001F00
E0001F00
C0001E00
9FFFEE00
3FFFF600
7FFFF000
7FFFF000
ENDCHAR
STARTCHAR F045
ENCODING 61509
SWIDTH 533 0
DWIDTH 32 0
BBX 24 43 2 0
BITMAP
07FFFF
07FFFF
03FFFE
1DFFFC
1E0000
1E0000
1E0000
1E0000
3E0000
3E0000
3C0000
3C0000
3C0000
3C0000
3C0000
3C0000
3C0000
780000
77FFF8
0FFFF8
1FFFFC
4FFFFC
77FFF0
700000
780000
780000
780000
780000
F00000
F00000
F00000
F00000
F00000
F00000
F00000
F00000
F00000
E00000
C00000
9FFFE0
3FFFF0
7FFFF0
7FFFF0
ENDCHAR
STARTCHAR F046
ENCODING 61510
SWIDTH 533 0
DWIDTH 32 0
BBX 25 40 1 4
BITMAP
03FFFF80
03FFFF80
01FFFF00
0EFFFE00
0F000000
0F000000
0F000000
0F000000
1F000000
1F000000
1E000000
1E000000
1E000000
1E000000
1E000000
1E000000
1E000000
3C000000
3BFFFC00
07FFFC00
0FFFFE00
37FFFE00
3BFFF800
3C000000
3C000000
3C000000
3C000000
3C000000
78000000
78000000
78000000
78000000
78000000
78000000
78000000
78000000
78000000
70000000
E0000000
40000000
ENDCHAR
STARTCHAR F047
ENCODING 61511
SWIDTH 533 0
DWIDTH 32 0
BBX 25 43 2 0
BITMAP
0FFFFE00
0FFFFE00
07FFFD80
33FFFB80
38000380
3C000780
7C000780
78000780
78000780
78000780
78000780
78000780
78000780
78000F80
78000F80
F8000F80
F0000F00
F0000F00
EFFFEF00
1FFFF700
3FFFFA00
3FFFF800
0FFFE700
00000F00
00001F00
00001F00
00001F00
00001E00
00001E00
00001E00
00001E00
00001E00
00001E00
00001E00
00003E00
00003E00
00003C00
00003C00
00003C00
7FFFDC00
7FFFCC00
FFFFE000
FFFFE000
ENDCHAR
STARTCHAR F048
ENCODING 61512
SWIDTH 533 0
DWIDTH 32 0
BBX 28 39 1 2
BITMAP
00000030
0E000070
0F0000F0
0F0001F0
0F0001F0
0F0001F0
1F0001E0
1F0001E0
1E0001E0
1E0001E0
1E0001E0
1E0001E0
1E0001E0
1E0001E0
1E0001E0
3C0003E0
3BFFFDC0
07FFFDC0
0FFFFE40
37FFFE40
3BFFF9C0
3C0003C0
3C0003C0
3C0003C0
3C0007C0
3C0007C0
780007C0
78000780
78000780
78000780
78000780
78000780
78000780
78000780
78000F80
70000F80
E0000700
40000700
00000300
ENDCHAR
STARTCHAR F049
ENCODING 61513
SWIDTH 533 0
DWIDTH 32 0
BBX 8 37 1 4
BITMAP
0E
0F
0F
0F
0F
1F
1F
1E
1E
1E
1E
1E
1E
1E
3C
38
00
00
30
38
3C
3C
3C
3C
3C
78
78
78
78
78
78
78
78
78
70
E0
40
ENDCHAR
STARTCHAR F04A
ENCODING 61514
SWIDTH 533 0
DWIDTH 32 0
BBX 27 41 2 0
BITMAP
00000060
000000E0
000001E0
000003E0
000003E0
000003E0
000003C0
000003C0
000003C0
000003C0
000003C0
000003C0
000003C0
000003C0
000003C0
000007C0
00000380
00000380
00000080
40000000
70000380
70000780
78000780
78000780
78000F80
78000F80
F0000F80
F0000F80
F0000F00
F0000F00
F0000F00
F0000F00
F0000F00
F0000F00
F0001F00
E0001F00
C0001F00
9FFFEE00
3FFFF600
7FFFF000
7FFFF000
ENDCHAR
STARTCHAR F04B
ENCODING 61515
SWIDTH 533 0
DWIDTH 32 0
BBX 28 39 1 2
BITMAP
00000030
0E000070
0F0000F0
0F0001F0
0F0001F0
0F0001F0
1F0001E0
1F0001E0
1E0001E0
1E0001E0
1E0001E0
1E0001E0
1E0001E0
1E0001E0
1E0001E0
3C0003E0
3BFFFDC0
07FFFDC0
0FFFFE40
37FFFE40
3BFFF9C0
3C0003C0
3C0003C0
3C0003C0
3C0007C0
3C0007C0
780007C0
78000780
78000780
78000780
78000780
78000780
78000780
78000780
78000F80
70000F80
E0000700
40000700
00000300
ENDCHAR
STARTCHAR F04C
ENCODING 61516
SWIDTH 533 0
DWIDTH 32 0
BBX 20 40 2 0
BITMAP
180000
1C0000
1E0000
1E0000
1E0000
1E0000
3E0000
3C0000
3C0000
3C0000
3C0000
3C0000
3C0000
3C0000
780000
700000
200000
000000
400000
700000
700000
780000
780000
780000
780000
F00000
F00000
F00000
F00000
F00000
F00000
F00000
F00000
F00000
E00000
C00000
9FFFE0
3FFFF0
7FFFF0
7FFFF0
ENDCHAR
STARTCHAR F04D
ENCODING 61517
SWIDTH 533 0
DWIDTH 32 0
BBX 26 41 1 2
BITMAP
03FFFF80
03FFFF80
01FFFF00
00FFFE00
00000000
00000000
00000000
00000000
00000000
00000000
00000000
00000000
00000000
00000000
00000000
00000000
00000000
00000000
00000000
00000000
00000000
30000040
380001C0
3C0003C0
3C0003C0
3C0003C0
3C0007C0
3C0007C0
780007C0
78000780
78000780
78000780
78000780
78000780
78000780
78000780
78000F80
70000F80
E0000700
40000700
00000300
ENDCHAR
STARTCHAR F04E
ENCODING 61518
SWIDTH 533 0
DWIDTH 32 0
BBX 26 23 1 2
BITMAP
03FFFC00
07FFFC00
0FFFFE00
37FFFE40
3BFFF9C0
3C0003C0
3C0003C0
3C0003C0
3C0007C0
3C0007C0
780007C0
78000780
78000780
78000780
78000780
78000780
78000780
78000780
78000F80
70000F80
E0000700
40000700
00000300
ENDCHAR
STARTCHAR F04F
ENCODING 61519
SWIDTH 533 0
DWIDTH 32 0
BBX 27 43 2 0
BITMAP
07FFFF00
07FFFF00
03FFFE60
19FFFCE0
1C0001E0
1E0003E0
1E0003E0
1E0003E0
3E0003C0
3E0003C0
3C0003C0
3C0003C0
3C0003C0
3C0003C0
3C0003C0
3C0003C0
3C0003C0
780007C0
70000380
00000380
00000080
40000000
70000380
70000780
78000780
78000780
78000F80
78000F80
F0000F80
F0000F80
F0000F00
F0000F00
F0000F00
F0000F00
F0000F00
F0000F00
F0001F00
E0001F00
C0001F00
9FFFEE00
3FFFF600
7FFFF000
7FFFF000
ENDCHAR
STARTCHAR F050
ENCODING 61520
SWIDTH 533 0
DWIDTH 32 0
BBX 28 40 1 4
BITMAP
03FFFF80
03FFFF80
01FFFF30
0EFFFE70
0F0000F0
0F0001F0
0F0001F0
0F0001F0
1F0001E0
1F0001E0
1E0001E0
1E0001E0
1E0001E0
1E0001E0
1E0001E0
1E0001E0
1E0001E0
3C0003E0
3BFFFDC0
07FFFDC0
0FFFFE40
37FFFE00
3BFFF800
3C000000
3C000000
3C000000
3C000000
3C000000
78000000
78000000
78000000
78000000
78000000
78000000
78000000
78000000
78000000
70000000
E0000000
40000000
ENDCHAR
STARTCHAR F051
ENCODING 61521
SWIDTH 533 0
DWIDTH 32 0
BBX 25 41 2 2
BITMAP
1FFFFC00
1FFFFC00
0FFFF980
77FFF380
78000780
78000780
78000F80
78000F80
78000F80
F8000F00
F0000F00
F0000F00
F0000F00
F0000F00
F0000F00
F0000F00
F0000F00
E0000F00
DFFFEF00
3FFFF600
7FFFF200
3FFFF200
1FFFCE00
00001E00
00001E00
00001E00
00001E00
00003E00
00003E00
00003E00
00003C00
00003C00
00003C00
00003C00
00003C00
00003C00
00003C00
00007C00
00003C00
00003800
00001800
ENDCHAR
STARTCHAR F052
ENCODING 61522
SWIDTH 533 0
DWIDTH 32 0
BBX 23 22 1 4
BITMAP
03FFFC
07FFFC
0FFFFE
37FFFE
3BFFF8
3C0000
3C0000
3C0000
3C0000
3C0000
780000
780000
780000
780000
780000
780000
780000
780000
780000
700000
E00000
400000
ENDCHAR
STARTCHAR F053
ENCODING 61523
SWIDTH 533 0
DWIDTH 32 0
BBX 24 43 2 0
BITMAP
0FFFFE
0FFFFE
07FFFC
33FFF8
380000
3C0000
7C0000
780000
780000
780000
780000
780000
780000
780000
780000
F80000
F00000
F00000
EFFFE0
1FFFF0
3FFFF8
3FFFF8
0FFFE7
00000F
00001F
00001F
00001F
00001E
00001E
00001E
00001E
00001E
00001E
00001E
00003E
00003E
00003C
00003C
00003C
7FFFDC
7FFFCC
FFFFE0
FFFFE0
ENDCHAR
STARTCHAR F054
ENCODING 61524
SWIDTH 533 0
DWIDTH 32 0
BBX 22 40 2 0
BITMAP
1C0000
1E0000
1E0000
1E0000
1E0000
3E0000
3E0000
3C0000
3C0000
3C0000
3C0000
3C0000
3C0000
3C0000
780000
77FFF8
0FFFF8
1FFFFC
4FFFFC
77FFF0
700000
780000
780000
780000
780000
F00000
F00000
F00000
F00000
F00000
F00000
F00000
F00000
F00000
E00000
C00000
9FFFE0
3FFFF0
7FFFF0
7FFFF0
ENDCHAR
STARTCHAR F055
ENCODING 61525
SWIDTH 533 0
DWIDTH 32 0
BBX 27 41 2 0
BITMAP
00000060
180000E0
1C0001E0
1E0003E0
1E0003E0
1E0003E0
1E0003C0
3E0003C0
3C0003C0
3C0003C0
3C0003C0
3C0003C0
3C0003C0
3C0003C0
3C0003C0
780007C0
70000380
20000380
00000080
40000000
70000380
70000780
78000780
78000780
78000F80
78000F80
F0000F80
F0000F80
F0000F00
F0000F00
F0000F00
F0000F00
F0000F00
F0000F00
F0001F00
E0001F00
C0001F00
9FFFEE00
3FFFF600
7FFFF000
7FFFF000
ENDCHAR
STARTCHAR F056
ENCODING 61526
SWIDTH 533 0
DWIDTH 32 0
BBX 25 22 2 0
BITMAP
40000000
70000380
70000780
78000780
78000780
78000F80
78000F80
F0000F80
F0000F80
F0000F00
F0000F00
F0000F00
F0000F00
F0000F00
F0000F00
F0001F00
E0001F00
C0001F00
9FFFEE00
3FFFF600
7FFFF000
7FFFF000
ENDCHAR
STARTCHAR F057
ENCODING 61527
SWIDTH 533 0
DWIDTH 32 0
BBX 25 41 2 0
BITMAP
00000180
30000380
38000380
3C000780
3C000780
78000780
78000780
78000780
78000780
78000780
78000780
78000F80
78000F80
F8000F80
F0000F00
F0000F00
E0000F00
80000700
00000200
00000000
00000000
00000000
00000000
00000000
00000000
00000000
00000000
00000000
00000000
00000000
00000000
00000000
00000000
00000000
00000000
00000000
00000000
7FFFC000
7FFFC000
FFFFE000
FFFFE000
ENDCHAR
STARTCHAR F058
ENCODING 61528
SWIDTH 533 0
DWIDTH 32 0
BBX 28 39 1 2
BITMAP
00000030
0E000070
0F0000F0
0F0001F0
0F0001F0
0F0001F0
1F0001E0
1F0001E0
1E0001E0
1E0001E0
1E0001E0
1E0001E0
1E0001E0
1E0001E0
1E0001E0
3C0003E0
3BFFFDC0
07FFFDC0
0FFFFE40
37FFFE40
3BFFF9C0
3C0003C0
3C0003C0
3C0003C0
3C0007C0
3C0007C0
780007C0
78000780
78000780
78000780
78000780
78000780
78000780
78000780
78000F80
70000F80
E0000700
40000700
00000300
ENDCHAR
STARTCHAR F059
ENCODING 61529
SWIDTH 533 0
DWIDTH 32 0
BBX 25 41 2 0
BITMAP
00000180
30000380
38000380
3C000780
7C000780
78000780
78000780
78000780
78000780
78000780
78000780
78000F80
78000F80
F8000F80
F0000F00
F0000F00
EFFFEF00
1FFFF700
3FFFFA00
3FFFF800
0FFFE700
00000F00
00001F00
00001F00
00001F00
00001E00
00001E00
00001E00
00001E00
00001E00
00001E00
00001E00
00003E00
00003E00
00003C00
00003C00
00003C00
7FFFDC00
7FFFCC00
FFFFE000
FFFFE000
ENDCHAR
STARTCHAR F05A
ENCODING 61530
SWIDTH 533 0
DWIDTH 32 0
BBX 27 43 2 0
BITMAP
07FFFF00
07FFFF00
03FFFE60
01FFFCE0
000001E0
000003E0
000003E0
000003E0
000003C0
000003C0
000003C0
000003C0
000003C0
000003C0
000003C0
000003C0
000003C0
000007C0
07FFFB80
0FFFFB80
1FFFFC80
4FFFFC00
77FFF000
70000000
78000000
78000000
78000000
78000000
F0000000
F0000000
F0000000
F0000000
F0000000
F0000000
F0000000
F0000000
F0000000
E0000000
C0000000
9FFFE000
3FFFF000
7FFFF000
7FFFF000
ENDCHAR
STARTCHAR F05B
ENCODING 61531
SWIDTH 533 0
DWIDTH 32 0
BBX 24 43 2 0
BITMAP
07FFFF
07FFFF
03FFFE
19FFFC
1C0000
1E0000
1E0000
1E0000
3E0000
3E0000
3C0000
3C0000
3C0000
3C0000
3C0000
3C0000
3C0000
780000
700000
000000
000000
400000
700000
700000
780000
780000
780000
780000
F00000
F00000
F00000
F00000
F00000
F00000
F00000
F00000
F00000
E00000
C00000
9FFFE0
3FFFF0
7FFFF0
7FFFF0
ENDCHAR
STARTCHAR F05C
ENCODING 61532
SWIDTH 533 0
DWIDTH 32 0
BBX 23 38 2 2
BITMAP
700000
780000
780000
780000
780000
780000
F80000
F00000
F00000
F00000
F00000
F00000
F00000
F00000
E00000
DFFFE0
3FFFF0
7FFFF0
3FFFF2
1FFFCE
00001E
00001E
00001E
00001E
00003E
00003E
00003E
00003C
00003C
00003C
00003C
00003C
00003C
00003C
00007C
00003C
000038
000018
ENDCHAR
STARTCHAR F05D
ENCODING 61533
SWIDTH 533 0
DWIDTH 32 0
BBX 25 43 2 0
BITMAP
0FFFFE00
0FFFFE00
07FFFD80
03FFFB80
00000380
00000780
00000780
00000780
00000780
00000780
00000780
00000780
00000780
00000F80
00000F80
00000F80
00000F00
00000F00
00000F00
00000700
00000200
00000000
00000700
00000F00
00001F00
00001F00
00001F00
00001E00
00001E00
00001E00
00001E00
00001E00
00001E00
00001E00
00003E00
00003E00
00003E00
00003C00
00003C00
7FFFDC00
7FFFCC00
FFFFE000
FFFFE000
ENDCHAR
STARTCHAR F05E
ENCODING 61534
SWIDTH 533 0
DWIDTH 32 0
BBX 25 21 2 22
BITMAP
1FFFFC00
1FFFFC00
0FFFF980
77FFF380
78000780
78000780
78000F80
78000F80
78000F80
F8000F00
F0000F00
F0000F00
F0000F00
F0000F00
F0000F00
F0000F00
F0000F00
E0000F00
C0000F00
00000600
00000200
ENDCHAR
STARTCHAR F05F
ENCODING 61535
SWIDTH 533 0
DWIDTH 32 0
BBX 19 4 2 0
BITMAP
7FFFC0
7FFFC0
FFFFE0
FFFFE0
ENDCHAR
STARTCHAR F060
ENCODING 61536
SWIDTH 533 0
DWIDTH 32 0
BBX 5 16 2 24
BITMAP
70
78
78
78
78
78
F8
F0
F0
F0
F0
F0
F0
F0
E0
C0
ENDCHAR
STARTCHAR F061
ENCODING 61537
SWIDTH 533 0
DWIDTH 32 0
BBX 28 41 1 2
BITMAP
03FFFF80
03FFFF80
01FFFF30
0EFFFE70
0F0000F0
0F0001F0
0F0001F0
0F0001F0
1F0001E0
1F0001E0
1E0001E0
1E0001E0
1E0001E0
1E0001E0
1E0001E0
1E0001E0
1E0001E0
3C0003E0
3BFFFDC0
07FFFDC0
0FFFFE40
37FFFE40
3BFFF9C0
3C0003C0
3C0003C0
3C0003C0
3C0007C0
3C0007C0
780007C0
78000780
78000780
78000780
78000780
78000780
78000780
78000780
78000F80
70000F80
E0000700
40000700
00000300
ENDCHAR
STARTCHAR F062
ENCODING 61538
SWIDTH 533 0
DWIDTH 32 0
BBX 25 40 2 0
BITMAP
1C000000
1E000000
1E000000
1E000000
1E000000
3E000000
3E000000
3C000000
3C000000
3C000000
3C000000
3C000000
3C000000
3C000000
78000000
77FFF800
0FFFF800
1FFFFC00
4FFFFC00
77FFF380
70000780
78000780
78000780
78000F80
78000F80
F0000F80
F0000F80
F0000F00
F0000F00
F0000F00
F0000F00
F0000F00
F0000F00
F0001F00
E0001F00
C0001E00
9FFFEE00
3FFFF600
7FFFF000
7FFFF000
ENDCHAR
STARTCHAR F063
ENCODING 61539
SWIDTH 533 0
DWIDTH 32 0
BBX 22 25 2 0
BITMAP
07FFF8
0FFFF8
1FFFFC
4FFFFC
77FFF0
700000
780000
780000
780000
780000
F00000
F00000
F00000
F00000
F00000
F00000
F00000
F00000
F00000
E00000
C00000
9FFFE0
3FFFF0
7FFFF0
7FFFF0
ENDCHAR
STARTCHAR F064
ENCODING 61540
SWIDTH 533 0
DWIDTH 32 0
BBX 27 41 2 0
BITMAP
00000060
000000E0
000001E0
000003E0
000003E0
000003E0
000003C0
000003C0
000003C0
000003C0
000003C0
000003C0
000003C0
000003C0
000003C0
000007C0
07FFFB80
0FFFFB80
1FFFFC80
4FFFFC00
77FFF380
70000780
78000780
78000780
78000F80
78000F80
F0000F80
F0000F80
F0000F00
F0000F00
F0000F00
F0000F00
F0000F00
F0000F00
F0001F00
E0001F00
C0001E00
9FFFEE00
3FFFF600
7FFFF000
7FFFF000
ENDCHAR
STARTCHAR F065
ENCODING 61541
SWIDTH 533 0
DWIDTH 32 0
BBX 24 43 2 0
BITMAP
07FFFF
07FFFF
03FFFE
1DFFFC
1E0000
1E0000
1E0000
1E0000
3E0000
3E0000
3C0000
3C0000
3C0000
3C0000
3C0000
3C0000
3C0000
780000
77FFF8
0FFFF8
1FFFFC
4FFFFC
77FFF0
700000
780000
780000
780000
780000
F00000
F00000
F00000
F00000
F00000
F00000
F00000
F00000
F00000
E00000
C00000
9FFFE0
3FFFF0
7FFFF0
7FFFF0
ENDCHAR
STARTCHAR F066
ENCODING 61542
SWIDTH 533 0
DWIDTH 32 0
BBX 25 40 1 4
BITMAP
03FFFF80
03FFFF80
01FFFF00
0EFFFE00
0F000000
0F000000
0F000000
0F000000
1F000000
1F000000
1E000000
1E000000
1E000000
1E000000
1E000000
1E000000
1E000000
3C000000
3BFFFC00
07FFFC00
0FFFFE00
37FFFE00
3BFFF800
3C000000
3C000000
3C000000
3C000000
3C000000
78000000
78000000
78000000
78000000
78000000
78000000
78000000
78000000
78000000
70000000
E0000000
40000000
ENDCHAR
STARTCHAR F067
ENCODING 61543
SWIDTH 533 0
DWIDTH 32 0
BBX 25 43 2 0
BITMAP
0FFFFE00
0FFFFE00
07FFFD80
33FFFB80
38000380
3C000780
7C000780
78000780
78000780
78000780
78000780
78000780
78000780
78000F80
78000F80
F8000F80
F0000F00
F0000F00
EFFFEF00
1FFFF700
3FFFFA00
3FFFF800
0FFFE700
00000F00
00001F00
00001F00
00001F00
00001E00
00001E00
00001E00
00001E00
00001E00
00001E00
00001E00
00003E00
00003E00
00003C00
00003C00
00003C00
7FFFDC00
7FFFCC00
FFFFE000
FFFFE000
ENDCHAR
STARTCHAR F068
ENCODING 61544
SWIDTH 533 0
DWIDTH 32 0
BBX 26 38 1 2
BITMAP
0E000000
0F000000
0F000000
0F000000
0F000000
1F000000
1F000000
1E000000
1E000000
1E000000
1E000000
1E000000
1E000000
1E000000
3C000000
3BFFFC00
07FFFC00
0FFFFE00
37FFFE40
3BFFF9C0
3C0003C0
3C0003C0
3C0003C0
3C0007C0
3C0007C0
780007C0
78000780
78000780
78000780
78000780
78000780
78000780
78000780
78000F80
70000F80
E0000700
40000700
00000300
ENDCHAR
STARTCHAR F069
ENCODING 61545
SWIDTH 533 0
DWIDTH 32 0
BBX 6 20 21 1
BITMAP
04
1C
3C
3C
3C
3C
7C
7C
7C
78
78
78
78
78
78
78
F8
78
70
30
ENDCHAR
STARTCHAR F06A
ENCODING 61546
SWIDTH 533 0
DWIDTH 32 0
BBX 27 41 2 0
BITMAP
00000060
000000E0
000001E0
000003E0
000003E0
000003E0
000003C0
000003C0
000003C0
000003C0
000003C0
000003C0
000003C0
000003C0
000003C0
000007C0
00000380
00000380
00000080
40000000
70000380
70000780
78000780
78000780
78000F80
78000F80
F0000F80
F0000F80
F0000F00
F0000F00
F0000F00
F0000F00
F0000F00
F0000F00
F0001F00
E0001F00
C0001F00
9FFFEE00
3FFFF600
7FFFF000
7FFFF000
ENDCHAR
STARTCHAR F06B
ENCODING 61547
SWIDTH 533 0
DWIDTH 32 0
BBX 28 39 1 2
BITMAP
00000030
0E000070
0F0000F0
0F0001F0
0F0001F0
0F0001F0
1F0001E0
1F0001E0
1E0001E0
1E0001E0
1E0001E0
1E0001E0
1E0001E0
1E0001E0
1E0001E0
3C0003E0
3BFFFDC0
07FFFDC0
0FFFFE40
37FFFE40
3BFFF9C0
3C0003C0
3C0003C0
3C0003C0
3C0007C0
3C0007C0
780007C0
78000780
78000780
78000780
78000780
78000780
78000780
78000780
78000F80
70000F80
E0000700
40000700
00000300
ENDCHAR
STARTCHAR F06C
ENCODING 61548
SWIDTH 533 0
DWIDTH 32 0
BBX 20 22 2 0
BITMAP
400000
700000
700000
780000
780000
780000
780000
F00000
F00000
F00000
F00000
F00000
F00000
F00000
F00000
F00000
E00000
C00000
9FFFE0
3FFFF0
7FFFF0
7FFFF0
ENDCHAR
STARTCHAR F06D
ENCODING 61549
SWIDTH 533 0
DWIDTH 32 0
BBX 26 41 1 2
BITMAP
03FFFF80
03FFFF80
01FFFF00
00FFFE00
00000000
00000000
00000000
00000000
00000000
00000000
00000000
00000000
00000000
00000000
00000000
00000000
00000000
00000000
00000000
00000000
00000000
30000040
380001C0
3C0003C0
3C0003C0
3C0003C0
3C0007C0
3C0007C0
780007C0
78000780
78000780
78000780
78000780
78000780
78000780
78000780
78000F80
70000F80
E0000700
40000700
00000300
ENDCHAR
STARTCHAR F06E
ENCODING 61550
SWIDTH 533 0
DWIDTH 32 0
BBX 26 23 1 2
BITMAP
03FFFC00
07FFFC00
0FFFFE00
37FFFE40
3BFFF9C0
3C0003C0
3C0003C0
3C0003C0
3C0007C0
3C0007C0
780007C0
78000780
78000780
78000780
78000780
78000780
78000780
78000780
78000F80
70000F80
E0000700
40000700
00000300
ENDCHAR
STARTCHAR F06F
ENCODING 61551
SWIDTH 533 0
DWIDTH 32 0
BBX 25 25 2 0
BITMAP
07FFF800
0FFFF800
1FFFFC00
4FFFFC00
77FFF380
70000780
78000780
78000780
78000F80
78000F80
F0000F80
F0000F80
F0000F00
F0000F00
F0000F00
F0000F00
F0000F00
F0000F00
F0001F00
E0001F00
C0001E00
9FFFEE00
3FFFF600
7FFFF000
7FFFF000
ENDCHAR
STARTCHAR F070
ENCODING 61552
SWIDTH 533 0
DWIDTH 32 0
BBX 28 40 1 4
BITMAP
03FFFF80
03FFFF80
01FFFF30
0EFFFE70
0F0000F0
0F0001F0
0F0001F0
0F0001F0
1F0001E0
1F0001E0
1E0001E0
1E0001E0
1E0001E0
1E0001E0
1E0001E0
1E0001E0
1E0001E0
3C0003E0
3BFFFDC0
07FFFDC0
0FFFFE40
37FFFE00
3BFFF800
3C000000
3C000000
3C000000
3C000000
3C000000
78000000
78000000
78000000
78000000
78000000
78000000
78000000
78000000
78000000
70000000
E0000000
40000000
ENDCHAR
STARTCHAR F071
ENCODING 61553
SWIDTH 533 0
DWIDTH 32 0
BBX 25 41 2 2
BITMAP
1FFFFC00
1FFFFC00
0FFFF980
77FFF380
78000780
78000780
78000F80
78000F80
78000F80
F8000F00
F0000F00
F0000F00
F0000F00
F0000F00
F0000F00
F0000F00
F0000F00
E0000F00
DFFFEF00
3FFFF600
7FFFF200
3FFFF200
1FFFCE00
00001E00
00001E00
00001E00
00001E00
00003E00
00003E00
00003E00
00003C00
00003C00
00003C00
00003C00
00003C00
00003C00
00003C00
00007C00
00003C00
00003800
00001800
ENDCHAR
STARTCHAR F072
ENCODING 61554
SWIDTH 533 0
DWIDTH 32 0
BBX 23 22 1 4
BITMAP
03FFFC
07FFFC
0FFFFE
37FFFE
3BFFF8
3C0000
3C0000
3C0000
3C0000
3C0000
780000
780000
780000
780000
780000
780000
780000
780000
780000
700000
E00000
400000
ENDCHAR
STARTCHAR F073
ENCODING 61555
SWIDTH 533 0
DWIDTH 32 0
BBX 24 43 2 0
BITMAP
0FFFFE
0FFFFE
07FFFC
33FFF8
380000
3C0000
7C0000
780000
780000
780000
780000
780000
780000
780000
780000
F80000
F00000
F00000
EFFFE0
1FFFF0
3FFFF8
3FFFF8
0FFFE7
00000F
00001F
00001F
00001F
00001E
00001E
00001E
00001E
00001E
00001E
00001E
00003E
00003E
00003C
00003C
00003C
7FFFDC
7FFFCC
FFFFE0
FFFFE0
ENDCHAR
STARTCHAR F074
ENCODING 61556
SWIDTH 533 0
DWIDTH 32 0
BBX 22 40 2 0
BITMAP
1C0000
1E0000
1E0000
1E0000
1E0000
3E0000
3E0000
3C0000
3C0000
3C0000
3C0000
3C0000
3C0000
3C0000
780000
77FFF8
0FFFF8
1FFFFC
4FFFFC
77FFF0
700000
780000
780000
780000
780000
F00000
F00000
F00000
F00000
F00000
F00000
F00000
F00000
F00000
E00000
C00000
9FFFE0
3FFFF0
7FFFF0
7FFFF0
ENDCHAR
STARTCHAR F075
ENCODING 61557
SWIDTH 533 0
DWIDTH 32 0
BBX 27 41 2 0
BITMAP
00000060
180000E0
1C0001E0
1E0003E0
1E0003E0
1E0003E0
1E0003C0
3E0003C0
3C0003C0
3C0003C0
3C0003C0
3C0003C0
3C0003C0
3C0003C0
3C0003C0
780007C0
70000380
20000380
00000080
40000000
70000380
70000780
78000780
78000780
78000F80
78000F80
F0000F80
F0000F80
F0000F00
F0000F00
F0000F00
F0000F00
F0000F00
F0000F00
F0001F00
E0001F00
C0001F00
9FFFEE00
3FFFF600
7FFFF000
7FFFF000
ENDCHAR
STARTCHAR F076
ENCODING 61558
SWIDTH 533 0
DWIDTH 32 0
BBX 25 22 2 0
BITMAP
40000000
70000380
70000780
78000780
78000780
78000F80
78000F80
F0000F80
F0000F80
F0000F00
F0000F00
F0000F00
F0000F00
F0000F00
F0000F00
F0001F00
E0001F00
C0001F00
9FFFEE00
3FFFF600
7FFFF000
7FFFF000
ENDCHAR
STARTCHAR F077
ENCODING 61559
SWIDTH 533 0
DWIDTH 32 0
BBX 25 41 2 0
BITMAP
00000180
30000380
38000380
3C000780
3C000780
78000780
78000780
78000780
78000780
78000780
78000780
78000F80
78000F80
F8000F80
F0000F00
F0000F00
E0000F00
80000700
00000200
00000000
00000000
00000000
00000000
00000000
00000000
00000000
00000000
00000000
00000000
00000000
00000000
00000000
00000000
00000000
00000000
00000000
00000000
7FFFC000
7FFFC000
FFFFE000
FFFFE000
ENDCHAR
STARTCHAR F078
ENCODING 61560
SWIDTH 533 0
DWIDTH 32 0
BBX 28 39 1 2
BITMAP
00000030
0E000070
0F0000F0
0F0001F0
0F0001F0
0F0001F0
1F0001E0
1F0001E0
1E0001E0
1E0001E0
1E0001E0
1E0001E0
1E0001E0
1E0001E0
1E0001E0
3C0003E0
3BFFFDC0
07FFFDC0
0FFFFE40
37FFFE40
3BFFF9C0
3C0003C0
3C0003C0
3C0003C0
3C0007C0
3C0007C0
780007C0
78000780
78000780
78000780
78000780
78000780
78000780
78000780
78000F80
70000F80
E0000700
40000700
00000300
ENDCHAR
STARTCHAR F079
ENCODING 61561
SWIDTH 533 0
DWIDTH 32 0
BBX 25 41 2 0
BITMAP
00000180
30000380
38000380
3C000780
7C000780
78000780
78000780
78000780
78000780
78000780
78000780
78000F80
78000F80
F8000F80
F0000F00
F0000F00
EFFFEF00
1FFFF700
3FFFFA00
3FFFF800
0FFFE700
00000F00
00001F00
00001F00
00001F00
00001E00
00001E00
00001E00
00001E00
00001E00
00001E00
00001E00
00003E00
00003E00
00003C00
00003C00
00003C00
7FFFDC00
7FFFCC00
FFFFE000
FFFFE000
ENDCHAR
STARTCHAR F07A
ENCODING 61562
SWIDTH 533 0
DWIDTH 32 0
BBX 27 43 2 0
BITMAP
07FFFF00
07FFFF00
03FFFE60
01FFFCE0
000001E0
000003E0
000003E0
000003E0
000003C0
000003C0
000003C0
000003C0
000003C0
000003C0
000003C0
000003C0
000003C0
000007C0
07FFFB80
0FFFFB80
1FFFFC80
4FFFFC00
77FFF000
70000000
78000000
78000000
78000000
78000000
F0000000
F0000000
F0000000
F0000000
F0000000
F0000000
F0000000
F0000000
F0000000
E0000000
C0000000
9FFFE000
3FFFF000
7FFFF000
7FFFF000
ENDCHAR
STARTCHAR F07B
ENCODING 61563
SWIDTH 533 0
DWIDTH 32 0
BBX 24 43 2 0
BITMAP
07FFFF
07FFFF
03FFFE
19FFFC
1C0000
1E0000
1E0000
1E0000
3E0000
3E0000
3C0000
3C0000
3C0000
3C0000
3C0000
3C0000
3C0000
780000
700000
000000
000000
400000
700000
700000
780000
780000
780000
780000
F00000
F00000
F00000
F00000
F00000
F00000
F00000
F00000
F00000
E00000
C00000
9FFFE0
3FFFF0
7FFFF0
7FFFF0
ENDCHAR
STARTCHAR F07C
ENCODING 61564
SWIDTH 533 0
DWIDTH 32 0
BBX 8 37 1 4
BITMAP
0E
0F
0F
0F
0F
1F
1F
1E
1E
1E
1E
1E
1E
1E
3C
38
00
00
30
38
3C
3C
3C
3C
3C
78
78
78
78
78
78
78
78
78
70
E0
40
ENDCHAR
STARTCHAR F07D
ENCODING 61565
SWIDTH 533 0
DWIDTH 32 0
BBX 25 43 2 0
BITMAP
0FFFFE00
0FFFFE00
07FFFD80
03FFFB80
00000380
00000780
00000780
00000780
00000780
00000780
00000780
00000780
00000780
00000F80
00000F80
00000F80
00000F00
00000F00
00000F00
00000700
00000200
00000000
00000700
00000F00
00001F00
00001F00
00001F00
00001E00
00001E00
00001E00
00001E00
00001E00
00001E00
00001E00
00003E00
00003E00
00003E00
00003C00
00003C00
7FFFDC00
7FFFCC00
FFFFE000
FFFFE000
ENDCHAR
STARTCHAR F07E
ENCODING 61566
SWIDTH 533 0
DWIDTH 32 0
BBX 18 5 2 21
BITMAP
3FFF80
FFFFC0
FFFFC0
FFFFC0
3FFF80
ENDCHAR
STARTCHAR F080
ENCODING 61568
SWIDTH 300 0
DWIDTH 18 0
BBX 0 0 0 0
BITMAP
ENDCHAR
STARTCHAR F081
ENCODING 61569
SWIDTH 300 0
DWIDTH 18 0
BBX 0 0 0 0
BITMAP
ENDCHAR
STARTCHAR F082
ENCODING 61570
SWIDTH 300 0
DWIDTH 18 0
BBX 0 0 0 0
BITMAP
ENDCHAR
STARTCHAR F083
ENCODING 61571
SWIDTH 300 0
DWIDTH 18 0
BBX 0 0 0 0
BITMAP
ENDCHAR
STARTCHAR F084
ENCODING 61572
SWIDTH 300 0
DWIDTH 18 0
BBX 0 0 0 0
BITMAP
ENDCHAR
STARTCHAR F085
ENCODING 61573
SWIDTH 300 0
DWIDTH 18 0
BBX 0 0 0 0
BITMAP
ENDCHAR
STARTCHAR F086
ENCODING 61574
SWIDTH 300 0
DWIDTH 18 0
BBX 0 0 0 0
BITMAP
ENDCHAR
STARTCHAR F087
ENCODING 61575
SWIDTH 300 0
DWIDTH 18 0
BBX 0 0 0 0
BITMAP
ENDCHAR
STARTCHAR F088
ENCODING 61576
SWIDTH 300 0
DWIDTH 18 0
BBX 0 0 0 0
BITMAP
ENDCHAR
STARTCHAR F089
ENCODING 61577
SWIDTH 300 0
DWIDTH 18 0
BBX 0 0 0 0
BITMAP
ENDCHAR
STARTCHAR F08A
ENCODING 61578
SWIDTH 300 0
DWIDTH 18 0
BBX 0 0 0 0
BITMAP
ENDCHAR
STARTCHAR F08B
ENCODING 61579
SWIDTH 300 0
DWIDTH 18 0
BBX 0 0 0 0
BITMAP
ENDCHAR
STARTCHAR F08C
ENCODING 61580
SWIDTH 300 0
DWIDTH 18 0
BBX 0 0 0 0
BITMAP
ENDCHAR
STARTCHAR F08D
ENCODING 61581
SWIDTH 300 0
DWIDTH 18 0
BBX 0 0 0 0
BITMAP
ENDCHAR
STARTCHAR F08E
ENCODING 61582
SWIDTH 300 0
DWIDTH 18 0
BBX 0 0 0 0
BITMAP
ENDCHAR
STARTCHAR F08F
ENCODING 61583
SWIDTH 300 0
DWIDTH 18 0
BBX 0 0 0 0
BITMAP
ENDCHAR
STARTCHAR F090
ENCODING 61584
SWIDTH 300 0
DWIDTH 18 0
BBX 0 0 0 0
BITMAP
ENDCHAR
STARTCHAR F091
ENCODING 61585
SWIDTH 300 0
DWIDTH 18 0
BBX 0 0 0 0
BITMAP
ENDCHAR
STARTCHAR F092
ENCODING 61586
SWIDTH 300 0
DWIDTH 18 0
BBX 0 0 0 0
BITMAP
ENDCHAR
STARTCHAR F093
ENCODING 61587
SWIDTH 300 0
DWIDTH 18 0
BBX 0 0 0 0
BITMAP
ENDCHAR
STARTCHAR F094
ENCODING 61588
SWIDTH 300 0
DWIDTH 18 0
BBX 0 0 0 0
BITMAP
ENDCHAR
STARTCHAR F095
ENCODING 61589
SWIDTH 300 0
DWIDTH 18 0
BBX 0 0 0 0
BITMAP
ENDCHAR
STARTCHAR F096
ENCODING 61590
SWIDTH 300 0
DWIDTH 18 0
BBX 0 0 0 0
BITMAP
ENDCHAR
STARTCHAR F097
ENCODING 61591
SWIDTH 300 0
DWIDTH 18 0
BBX 0 0 0 0
BITMAP
ENDCHAR
STARTCHAR F098
ENCODING 61592
SWIDTH 300 0
DWIDTH 18 0
BBX 0 0 0 0
BITMAP
ENDCHAR
STARTCHAR F099
ENCODING 61593
SWIDTH 300 0
DWIDTH 18 0
BBX 0 0 0 0
BITMAP
ENDCHAR
STARTCHAR F09A
ENCODING 61594
SWIDTH 300 0
DWIDTH 18 0
BBX 0 0 0 0
BITMAP
ENDCHAR
STARTCHAR F09B
ENCODING 61595
SWIDTH 300 0
DWIDTH 18 0
BBX 0 0 0 0
BITMAP
ENDCHAR
STARTCHAR F09C
ENCODING 61596
SWIDTH 300 0
DWIDTH 18 0
BBX 0 0 0 0
BITMAP
ENDCHAR
STARTCHAR F09D
ENCODING 61597
SWIDTH 300 0
DWIDTH 18 0
BBX 0 0 0 0
BITMAP
ENDCHAR
STARTCHAR F09E
ENCODING 61598
SWIDTH 300 0
DWIDTH 18 0
BBX 0 0 0 0
BITMAP
ENDCHAR
STARTCHAR F09F
ENCODING 61599
SWIDTH 300 0
DWIDTH 18 0
BBX 0 0 0 0
BITMAP
ENDCHAR
STARTCHAR F0A0
ENCODING 61600
SWIDTH 500 0
DWIDTH 30 0
BBX 0 0 0 0
BITMAP
ENDCHAR
STARTCHAR F0A1
ENCODING 61601
SWIDTH 300 0
DWIDTH 18 0
BBX 0 0 0 0
BITMAP
ENDCHAR
STARTCHAR F0A2
ENCODING 61602
SWIDTH 300 0
DWIDTH 18 0
BBX 0 0 0 0
BITMAP
ENDCHAR
STARTCHAR F0A3
ENCODING 61603
SWIDTH 300 0
DWIDTH 18 0
BBX 0 0 0 0
BITMAP
ENDCHAR
STARTCHAR F0A4
ENCODING 61604
SWIDTH 300 0
DWIDTH 18 0
BBX 0 0 0 0
BITMAP
ENDCHAR
STARTCHAR F0A5
ENCODING 61605
SWIDTH 300 0
DWIDTH 18 0
BBX 0 0 0 0
BITMAP
ENDCHAR
STARTCHAR F0A6
ENCODING 61606
SWIDTH 300 0
DWIDTH 18 0
BBX 0 0 0 0
BITMAP
ENDCHAR
STARTCHAR F0A7
ENCODING 61607
SWIDTH 300 0
DWIDTH 18 0
BBX 0 0 0 0
BITMAP
ENDCHAR
STARTCHAR F0A8
ENCODING 61608
SWIDTH 300 0
DWIDTH 18 0
BBX 0 0 0 0
BITMAP
ENDCHAR
STARTCHAR F0A9
ENCODING 61609
SWIDTH 300 0
DWIDTH 18 0
BBX 0 0 0 0
BITMAP
ENDCHAR
STARTCHAR F0AA
ENCODING 61610
SWIDTH 300 0
DWIDTH 18 0
BBX 0 0 0 0
BITMAP
ENDCHAR
STARTCHAR F0AB
ENCODING 61611
SWIDTH 300 0
DWIDTH 18 0
BBX 0 0 0 0
BITMAP
ENDCHAR
STARTCHAR F0AC
ENCODING 61612
SWIDTH 300 0
DWIDTH 18 0
BBX 0 0 0 0
BITMAP
ENDCHAR
STARTCHAR F0AD
ENCODING 61613
SWIDTH 300 0
DWIDTH 18 0
BBX 0 0 0 0
BITMAP
ENDCHAR
STARTCHAR F0AE
ENCODING 61614
SWIDTH 300 0
DWIDTH 18 0
BBX 0 0 0 0
BITMAP
ENDCHAR
STARTCHAR F0AF
ENCODING 61615
SWIDTH 300 0
DWIDTH 18 0
BBX 0 0 0 0
BITMAP
ENDCHAR
STARTCHAR F0B0
ENCODING 61616
SWIDTH 300 0
DWIDTH 18 0
BBX 0 0 0 0
BITMAP
ENDCHAR
STARTCHAR F0B1
ENCODING 61617
SWIDTH 300 0
DWIDTH 18 0
BBX 0 0 0 0
BITMAP
ENDCHAR
STARTCHAR F0B2
ENCODING 61618
SWIDTH 300 0
DWIDTH 18 0
BBX 0 0 0 0
BITMAP
ENDCHAR
STARTCHAR F0B3
ENCODING 61619
SWIDTH 300 0
DWIDTH 18 0
BBX 0 0 0 0
BITMAP
ENDCHAR
STARTCHAR F0B4
ENCODING 61620
SWIDTH 300 0
DWIDTH 18 0
BBX 0 0 0 0
BITMAP
ENDCHAR
STARTCHAR F0B5
ENCODING 61621
SWIDTH 300 0
DWIDTH 18 0
BBX 0 0 0 0
BITMAP
ENDCHAR
STARTCHAR F0B6
ENCODING 61622
SWIDTH 300 0
DWIDTH 18 0
BBX 0 0 0 0
BITMAP
ENDCHAR
STARTCHAR F0B7
ENCODING 61623
SWIDTH 300 0
DWIDTH 18 0
BBX 0 0 0 0
BITMAP
ENDCHAR
STARTCHAR F0B8
ENCODING 61624
SWIDTH 300 0
DWIDTH 18 0
BBX 0 0 0 0
BITMAP
ENDCHAR
STARTCHAR F0B9
ENCODING 61625
SWIDTH 300 0
DWIDTH 18 0
BBX 0 0 0 0
BITMAP
ENDCHAR
STARTCHAR F0BA
ENCODING 61626
SWIDTH 300 0
DWIDTH 18 0
BBX 0 0 0 0
BITMAP
ENDCHAR
STARTCHAR F0BB
ENCODING 61627
SWIDTH 300 0
DWIDTH 18 0
BBX 0 0 0 0
BITMAP
ENDCHAR
STARTCHAR F0BC
ENCODING 61628
SWIDTH 300 0
DWIDTH 18 0
BBX 0 0 0 0
BITMAP
ENDCHAR
STARTCHAR F0BD
ENCODING 61629
SWIDTH 300 0
DWIDTH 18 0
BBX 0 0 0 0
BITMAP
ENDCHAR
STARTCHAR F0BE
ENCODING 61630
SWIDTH 300 0
DWIDTH 18 0
BBX 0 0 0 0
BITMAP
ENDCHAR
STARTCHAR F0BF
ENCODING 61631
SWIDTH 300 0
DWIDTH 18 0
BBX 0 0 0 0
BITMAP
ENDCHAR
STARTCHAR F0C0
ENCODING 61632
SWIDTH 300 0
DWIDTH 18 0
BBX 0 0 0 0
BITMAP
ENDCHAR
STARTCHAR F0C1
ENCODING 61633
SWIDTH 300 0
DWIDTH 18 0
BBX 0 0 0 0
BITMAP
ENDCHAR
STARTCHAR F0C2
ENCODING 61634
SWIDTH 300 0
DWIDTH 18 0
BBX 0 0 0 0
BITMAP
ENDCHAR
STARTCHAR F0C3
ENCODING 61635
SWIDTH 300 0
DWIDTH 18 0
BBX 0 0 0 0
BITMAP
ENDCHAR
STARTCHAR F0C4
ENCODING 61636
SWIDTH 300 0
DWIDTH 18 0
BBX 0 0 0 0
BITMAP
ENDCHAR
STARTCHAR F0C5
ENCODING 61637
SWIDTH 300 0
DWIDTH 18 0
BBX 0 0 0 0
BITMAP
ENDCHAR
STARTCHAR F0C6
ENCODING 61638
SWIDTH 300 0
DWIDTH 18 0
BBX 0 0 0 0
BITMAP
ENDCHAR
STARTCHAR F0C7
ENCODING 61639
SWIDTH 300 0
DWIDTH 18 0
BBX 0 0 0 0
BITMAP
ENDCHAR
STARTCHAR F0C8
ENCODING 61640
SWIDTH 300 0
DWIDTH 18 0
BBX 0 0 0 0
BITMAP
ENDCHAR
STARTCHAR F0C9
ENCODING 61641
SWIDTH 300 0
DWIDTH 18 0
BBX 0 0 0 0
BITMAP
ENDCHAR
STARTCHAR F0CA
ENCODING 61642
SWIDTH 300 0
DWIDTH 18 0
BBX 0 0 0 0
BITMAP
ENDCHAR
STARTCHAR F0CB
ENCODING 61643
SWIDTH 300 0
DWIDTH 18 0
BBX 0 0 0 0
BITMAP
ENDCHAR
STARTCHAR F0CC
ENCODING 61644
SWIDTH 300 0
DWIDTH 18 0
BBX 0 0 0 0
BITMAP
ENDCHAR
STARTCHAR F0CD
ENCODING 61645
SWIDTH 300 0
DWIDTH 18 0
BBX 0 0 0 0
BITMAP
ENDCHAR
STARTCHAR F0CE
ENCODING 61646
SWIDTH 300 0
DWIDTH 18 0
BBX 0 0 0 0
BITMAP
ENDCHAR
STARTCHAR F0CF
ENCODING 61647
SWIDTH 300 0
DWIDTH 18 0
BBX 0 0 0 0
BITMAP
ENDCHAR
STARTCHAR F0D0
ENCODING 61648
SWIDTH 300 0
DWIDTH 18 0
BBX 0 0 0 0
BITMAP
ENDCHAR
STARTCHAR F0D1
ENCODING 61649
SWIDTH 300 0
DWIDTH 18 0
BBX 0 0 0 0
BITMAP
ENDCHAR
STARTCHAR F0D2
ENCODING 61650
SWIDTH 300 0
DWIDTH 18 0
BBX 0 0 0 0
BITMAP
ENDCHAR
STARTCHAR F0D3
ENCODING 61651
SWIDTH 300 0
DWIDTH 18 0
BBX 0 0 0 0
BITMAP
ENDCHAR
STARTCHAR F0D4
ENCODING 61652
SWIDTH 300 0
DWIDTH 18 0
BBX 0 0 0 0
BITMAP
ENDCHAR
STARTCHAR F0D5
ENCODING 61653
SWIDTH 300 0
DWIDTH 18 0
BBX 0 0 0 0
BITMAP
ENDCHAR
STARTCHAR F0D6
ENCODING 61654
SWIDTH 300 0
DWIDTH 18 0
BBX 0 0 0 0
BITMAP
ENDCHAR
STARTCHAR F0D7
ENCODING 61655
SWIDTH 300 0
DWIDTH 18 0
BBX 0 0 0 0
BITMAP
ENDCHAR
STARTCHAR F0D8
ENCODING 61656
SWIDTH 300 0
DWIDTH 18 0
BBX 0 0 0 0
BITMAP
ENDCHAR
STARTCHAR F0D9
ENCODING 61657
SWIDTH 300 0
DWIDTH 18 0
BBX 0 0 0 0
BITMAP
ENDCHAR
STARTCHAR F0DA
ENCODING 61658
SWIDTH 300 0
DWIDTH 18 0
BBX 0 0 0 0
BITMAP
ENDCHAR
STARTCHAR F0DB
ENCODING 61659
SWIDTH 300 0
DWIDTH 18 0
BBX 0 0 0 0
BITMAP
ENDCHAR
STARTCHAR F0DC
ENCODING 61660
SWIDTH 300 0
DWIDTH 18 0
BBX 0 0 0 0
BITMAP
ENDCHAR
STARTCHAR F0DD
ENCODING 61661
SWIDTH 300 0
DWIDTH 18 0
BBX 0 0 0 0
BITMAP
ENDCHAR
STARTCHAR F0DE
ENCODING 61662
SWIDTH 300 0
DWIDTH 18 0
BBX 0 0 0 0
BITMAP
ENDCHAR
STARTCHAR F0DF
ENCODING 61663
SWIDTH 300 0
DWIDTH 18 0
BBX 0 0 0 0
BITMAP
ENDCHAR
STARTCHAR F0E0
ENCODING 61664
SWIDTH 300 0
DWIDTH 18 0
BBX 0 0 0 0
BITMAP
ENDCHAR
STARTCHAR F0E1
ENCODING 61665
SWIDTH 300 0
DWIDTH 18 0
BBX 0 0 0 0
BITMAP
ENDCHAR
STARTCHAR F0E2
ENCODING 61666
SWIDTH 300 0
DWIDTH 18 0
BBX 0 0 0 0
BITMAP
ENDCHAR
STARTCHAR F0E3
ENCODING 61667
SWIDTH 300 0
DWIDTH 18 0
BBX 0 0 0 0
BITMAP
ENDCHAR
STARTCHAR F0E4
ENCODING 61668
SWIDTH 300 0
DWIDTH 18 0
BBX 0 0 0 0
BITMAP
ENDCHAR
STARTCHAR F0E5
ENCODING 61669
SWIDTH 300 0
DWIDTH 18 0
BBX 0 0 0 0
BITMAP
ENDCHAR
STARTCHAR F0E6
ENCODING 61670
SWIDTH 300 0
DWIDTH 18 0
BBX 0 0 0 0
BITMAP
ENDCHAR
STARTCHAR F0E7
ENCODING 61671
SWIDTH 300 0
DWIDTH 18 0
BBX 0 0 0 0
BITMAP
ENDCHAR
STARTCHAR F0E8
ENCODING 61672
SWIDTH 300 0
DWIDTH 18 0
BBX 0 0 0 0
BITMAP
ENDCHAR
STARTCHAR F0E9
ENCODING 61673
SWIDTH 300 0
DWIDTH 18 0
BBX 0 0 0 0
BITMAP
ENDCHAR
STARTCHAR F0EA
ENCODING 61674
SWIDTH 300 0
DWIDTH 18 0
BBX 0 0 0 0
BITMAP
ENDCHAR
STARTCHAR F0EB
ENCODING 61675
SWIDTH 300 0
DWIDTH 18 0
BBX 0 0 0 0
BITMAP
ENDCHAR
STARTCHAR F0EC
ENCODING 61676
SWIDTH 300 0
DWIDTH 18 0
BBX 0 0 0 0
BITMAP
ENDCHAR
STARTCHAR F0ED
ENCODING 61677
SWIDTH 300 0
DWIDTH 18 0
BBX 0 0 0 0
BITMAP
ENDCHAR
STARTCHAR F0EE
ENCODING 61678
SWIDTH 300 0
DWIDTH 18 0
BBX 0 0 0 0
BITMAP
ENDCHAR
STARTCHAR F0EF
ENCODING 61679
SWIDTH 300 0
DWIDTH 18 0
BBX 0 0 0 0
BITMAP
ENDCHAR
STARTCHAR F0F0
ENCODING 61680
SWIDTH 300 0
DWIDTH 18 0
BBX 0 0 0 0
BITMAP
ENDCHAR
STARTCHAR F0F1
ENCODING 61681
SWIDTH 300 0
DWIDTH 18 0
BBX 0 0 0 0
BITMAP
ENDCHAR
STARTCHAR F0F2
ENCODING 61682
SWIDTH 300 0
DWIDTH 18 0
BBX 0 0 0 0
BITMAP
ENDCHAR
STARTCHAR F0F3
ENCODING 61683
SWIDTH 300 0
DWIDTH 18 0
BBX 0 0 0 0
BITMAP
ENDCHAR
STARTCHAR F0F4
ENCODING 61684
SWIDTH 300 0
DWIDTH 18 0
BBX 0 0 0 0
BITMAP
ENDCHAR
STARTCHAR F0F5
ENCODING 61685
SWIDTH 300 0
DWIDTH 18 0
BBX 0 0 0 0
BITMAP
ENDCHAR
STARTCHAR F0F6
ENCODING 61686
SWIDTH 300 0
DWIDTH 18 0
BBX 0 0 0 0
BITMAP
ENDCHAR
STARTCHAR F0F7
ENCODING 61687
SWIDTH 300 0
DWIDTH 18 0
BBX 0 0 0 0
BITMAP
ENDCHAR
STARTCHAR F0F8
ENCODING 61688
SWIDTH 300 0
DWIDTH 18 0
BBX 0 0 0 0
BITMAP
ENDCHAR
STARTCHAR F0F9
ENCODING 61689
SWIDTH 300 0
DWIDTH 18 0
BBX 0 0 0 0
BITMAP
ENDCHAR
STARTCHAR F0FA
ENCODING 61690
SWIDTH 300 0
DWIDTH 18 0
BBX 0 0 0 0
BITMAP
ENDCHAR
STARTCHAR F0FB
ENCODING 61691
SWIDTH 300 0
DWIDTH 18 0
BBX 0 0 0 0
BITMAP
ENDCHAR
STARTCHAR F0FC
ENCODING 61692
SWIDTH 300 0
DWIDTH 18 0
BBX 0 0 0 0
BITMAP
ENDCHAR
STARTCHAR F0FD
ENCODING 61693
SWIDTH 300 0
DWIDTH 18 0
BBX 0 0 0 0
BITMAP
ENDCHAR
STARTCHAR F0FE
ENCODING 61694
SWIDTH 300 0
DWIDTH 18 0
BBX 0 0 0 0
BITMAP
ENDCHAR
STARTCHAR F0FF
ENCODING 61695
SWIDTH 300 0
DWIDTH 18 0
BBX 0 0 0 0
BITMAP
ENDCHAR
ENDFONT
